# xmcd
#
# Track frame offsets:
# 150
# 12110
# 21468
# 33673
# 44149
# 54299
# 67337
# 77098
# 88930
# 98248
# 109923
# 122143
#
# Disc length: 1781 seconds
#
#
# Revision: 0
# Processed by: cddbd v1.4PL0 Copyright (c) Steve Scherf et al.
# Submitted via: FreeRIP 2.00 
#
DISCID=aa06f30c
DTITLE=Waylon Jennings - Folk Country
DYEAR=1966
DGENRE=Country
TTITLE0=Another Bridge To Burn
TTITLE1=Stop The World And Let Me Off
TTITLE2=Cindy Of New Orleans
TTITLE3=Look Into My Teardrops
TTITLE4=Down Came The World
TTITLE5=I Don't Mind
TTITLE6=Just For You
TTITLE7=Now Everybody Knows
TTITLE8=That's The Chance I'll Have To Take
TTITLE9=What Makes A Man Wander
TTITLE10=I'm A Man Of Constant Sorrow
TTITLE11=What's Left Of Me
EXTD=RCA Victor LSP 3523\n
EXTT0=
EXTT1=
EXTT2=
EXTT3=
EXTT4=
EXTT5=
EXTT6=
EXTT7=
EXTT8=
EXTT9=
EXTT10=
EXTT11=
PLAYORDER=
